<svg id="bhutan" xmlns="http://www.w3.org/2000/svg" width="31.353" height="15.902" viewBox="0 0 31.353 20.902">
  <defs>
    <style>
      .cls-1 {
        fill: #ffd520;
      }

      .cls-2 {
        fill: #ff4e12;
      }

      .cls-3, .cls-7 {
        fill: #fff;
      }

      .cls-3, .cls-4, .cls-5, .cls-6, .cls-7 {
        stroke: #000;
        stroke-width: 0.521px;
      }

      .cls-4, .cls-5, .cls-6 {
        fill: none;
      }

      .cls-5, .cls-6, .cls-7 {
        stroke-linecap: round;
      }

      .cls-6 {
        stroke-linejoin: round;
      }
    </style>
  </defs>
  <path id="Path_220" data-name="Path 220" class="cls-1" d="M0,0H31.353V20.9H0Z"/>
  <path id="Path_221" data-name="Path 221" class="cls-2" d="M0,20.9H31.353V0Z"/>
  <g id="Group_370" data-name="Group 370" transform="translate(4.478 2.593)">
    <g id="Group_365" data-name="Group 365" transform="translate(0 3.031)">
      <path id="Path_222" data-name="Path 222" class="cls-3" d="M473.969,187.064c-.174-.062-.286.028-.28.252s.123.353.3.269l-.017-.522Z" transform="translate(-461.665 -186.153)"/>
      <path id="Path_223" data-name="Path 223" class="cls-3" d="M475.838,173.87c-.145-.114-.28-.065-.346.149s0,.374.195.35l.152-.5Z" transform="translate(-463.381 -173.379)"/>
      <path id="Path_224" data-name="Path 224" class="cls-3" d="M481.454,161.52c-.125-.136-.266-.109-.366.091s-.057.37.136.377ZM481.3,163.5a.356.356,0,0,0-.1.55.3.3,0,0,0,.516,0l-.415-.55Z" transform="translate(-468.757 -161.435)"/>
      <path id="Path_225" data-name="Path 225" class="cls-3" d="M461.4,202.591c-.2-.067-.384.2-.415.449-.039.308-.477.409-.235.875a.518.518,0,0,1,.4-.471.57.57,0,0,0,.494-.236Zm.639,1.2c-.236.056-.269.37-.1.594.144.192.594.146.583-.045Zm.667,1.89c.011-.2-.314-.28-.471-.241s-.457-.006-.527-.174c-.056.135.025.28.252.353.172.055.168.179.118.236.129.022.51.022.628-.174Z" transform="translate(-449.107 -201.147)"/>
      <path id="Path_226" data-name="Path 226" class="cls-3" d="M482.7,253.662c-.23-.1-.366.053-.454.2-.129.219-.527-.062-.662.23.182-.078.368.089.454.146.247.163.723.112.791-.269Z" transform="translate(-469.288 -250.418)"/>
      <path id="Path_227" data-name="Path 227" class="cls-3" d="M455.894,262.28a.683.683,0,0,0-.314.522c.006.14.2.449.415.465C456.118,263.015,456.18,262.482,455.894,262.28Zm-.953,1.082c0-.084.123-.118.207-.09s.213.112.168.2Zm-1.268-.46c-.022-.1.14-.275.359-.179s.247.28.157.353l-.516-.174Z" transform="translate(-442.345 -258.767)"/>
      <path id="Path_228" data-name="Path 228" class="cls-3" d="M353.671,250.193c-.017-.056.141-.168.409-.1s.335.241.325.376l-.735-.275Zm-.561-.185a.222.222,0,0,0-.039-.37c-.23-.112-.146-.4-.292-.46s-.286-.157-.292-.258a.281.281,0,0,0,.073.359c.1.09-.079.454.05.55Zm-3.006-.078a.342.342,0,0,0-.516-.022.278.278,0,0,0,.011.4Zm.673-.275c-.045-.247-.342-.275-.5-.213a.358.358,0,0,0-.168.488l.673-.275Z" transform="translate(-341.81 -245.872)"/>
      <path id="Path_229" data-name="Path 229" class="cls-3" d="M375.251,247.133c.107-.207-.1-.516-.336-.561-.2-.037-.429-.036-.5-.23-.048.168.079.275.224.37s-.028.342.207.482l.409-.062Z" transform="translate(-365.835 -243.384)"/>
      <path id="Path_230" data-name="Path 230" class="cls-3" d="M397.857,260.018a.25.25,0,0,1,.252-.333c.2.014.316.16.227.343l-.479-.011Z" transform="translate(-388.464 -256.262)"/>
      <path id="Path_231" data-name="Path 231" class="cls-3" d="M410.965,261.259a.25.25,0,0,1,.3-.294c.2.042.291.2.177.372Z" transform="translate(-401.123 -257.492)"/>
      <path id="Path_232" data-name="Path 232" class="cls-3" d="M315.52,263.621a.25.25,0,0,1,.31-.279c.2.052.28.217.158.38Zm-3.384,2.569c-.376,0-.468.089-.522.477C311.547,267.149,312.2,267.205,312.136,266.19Z" transform="translate(-305.233 -259.783)"/>
      <path id="Path_233" data-name="Path 233" class="cls-3" d="M135.628,329.918c-.578-.219-.892.7-1.464.533.2.325.7,0,.886.034.314.056.993-.062.578-.566Zm-.376,1.251c-.286-.129-.594.308-.538.5C134.785,331.91,135.437,331.712,135.252,331.169Zm-1.335,1.884a.37.37,0,0,1,.314.437,1.481,1.481,0,0,1-1.122.953c-.516.034-.7.656-1.144.482.415-.078.415-.55.74-.7-.236-.084-.359.449-.662.449s-.449.482-.819.449-.409.587-1.15.595c-.566.006-1.267.667-1.52.381a1.772,1.772,0,0,0,1.1-.718c.527-.538,1.122-.3,1.323-.774a1.378,1.378,0,0,1-.8.236c-.345-.007-.723.55-1.11.3a.948.948,0,0,0,.606-.37c.241-.253.6-.089.875-.348.437-.4.813-.067,1.234-.572a.812.812,0,0,0-.606.107c-.236.123-.538-.084-.808.062.034-.331.662-.141,1.054-.37a1.705,1.705,0,0,1,1.161-.151c-.488,0-.679-.466-1.351-.331-.294.059-.527-.4-.819-.168.008-.174.314-.314.628-.146s.441-.147,1.066.247c.258.163.7-.1.981.073-.036-.107-.2-.174-.384-.16.118-.241.878-.21,1.208.031Z" transform="translate(-128.556 -324.016)"/>
      <path id="Path_234" data-name="Path 234" class="cls-3" d="M273.94,408.216c-.247-.191-.589.039-.824-.05a.5.5,0,0,0,.336.482A6.071,6.071,0,0,0,273.94,408.216Z" transform="translate(-268.08 -399.543)"/>
      <path id="Path_235" data-name="Path 235" class="cls-3" d="M286.915,393.467c-.387-.2-.454.292-.757.191a.408.408,0,0,0,.37.353l.387-.544Z" transform="translate(-280.668 -385.338)"/>
      <path id="Path_236" data-name="Path 236" class="cls-3" d="M287.3,312.741c-.572-.224-.645.325-.981.219.079.191.561.292.808.224Zm.785-2.406c-.151-.213-.471-.039-.522.213s.073.606.286.527l.236-.74Z" transform="translate(-280.823 -305.055)"/>
      <path id="Path_237" data-name="Path 237" class="cls-3" d="M331.386,292.9c-.264-.062-.566-.034-.533.224-.1.045-.129.376.146.449l.387-.673Z" transform="translate(-323.737 -288.298)"/>
      <path id="Path_238" data-name="Path 238" class="cls-3" d="M317.074,281.717c-.258-.3-.546-.3-.707-.168-.3.236-.586.1-.594.337.18-.137.336.028.482-.022s.252.23.656.112Zm-.623,4.526a.305.305,0,0,0,.4-.017c.156-.164-.017-.617-.264-.651S316.317,286.086,316.452,286.243Z" transform="translate(-309.251 -277.284)"/>
      <path id="Path_239" data-name="Path 239" class="cls-3" d="M327.2,409.287c.353.129.5-.163.314-.348A3.531,3.531,0,0,1,327.2,409.287Z" transform="translate(-320.28 -400.317)"/>
      <path id="Path_240" data-name="Path 240" class="cls-3" d="M242.909,192.556c-.067.2-.415.236-.808.864s-.768.365-.864.8c.471-.381.841-.128,1.122-.5.426-.572.777-.49.942-.875.236-.55,1.267-.538,1.323-1.4-.348-.067-1.447.864-1.716,1.122Zm8.85-8.479c.449.146.46.729.976.92s.567.65.987.538c-.393-.107-.365-.561-.774-.673-.48-.132-.662-.864-1.043-.976m1.912,3.236a.416.416,0,0,1-.213.583.383.383,0,0,0,.5-.2c-.185.409-.062.78.23.852-.14-.286.174-.421.073-.606a.624.624,0,0,1,.342.488c.241-.269-.179-.628-.1-.88l-.83-.236ZM250.912,190c-.275-.241-.392.063-.527-.042s-.294-.112-.359-.014c.236.008.12.191.578.236-.457.031-.373.541-.679.516.325.308.494-.275.757-.179-.079.022.123.207-.017.454.227-.006.32-.32.348-.482Zm-6.051,2.619a.6.6,0,0,0-.5-.056c-.112.067-.073.084.062.1s.308.229.017.241c-.135.006-.09.331-.37.353.115.14.443.048.561-.107-.022.126.146.241.079.392.207.023.087-.421.415-.4-.135.017-.079.32.157.241-.14.067-.067.23.09.191-.1.034-.135.163.006.236.135-.185-.017-.847-.51-1.189Zm12.214-6.188a.777.777,0,1,0-.777-.777A.777.777,0,0,0,257.075,186.436Z" transform="translate(-237.313 -183.104)"/>
      <path id="Path_241" data-name="Path 241" class="cls-3" d="M406.216,202.606a.7.7,0,0,1,.841-.168,1.659,1.659,0,0,0,1.469.09c.4-.28.594-.426.774-.393a.637.637,0,0,0,.5.314.614.614,0,0,0,.4.107.586.586,0,0,0,.572-.2.6.6,0,0,0,.617-.465c.286-.034.3-.353.123-.566-.168-.034-.039-.6-.651-.488.258.157.062.471.275.617a.356.356,0,0,0-.379.28.254.254,0,0,0-.048-.286c.006-.129-.28-.446-.55-.331.193.042.084.353.224.471a.355.355,0,0,0-.269.146.753.753,0,0,0-.488-.275.571.571,0,0,0-.028-.179.8.8,0,0,1-.1-.5,2.013,2.013,0,0,0-.314.493c-.213-.146-.74.067-.987.123a2.177,2.177,0,0,1-1.267-.28,2.141,2.141,0,0,0-.908-.426c-.478-.139-.482-.662-1.01-1.021a8.885,8.885,0,0,0,1.2,2.939Zm-5.5,4.957a.751.751,0,1,0-.751-.751A.751.751,0,0,0,400.721,207.563Z" transform="translate(-390.514 -198.335)"/>
      <path id="Path_242" data-name="Path 242" class="cls-3" d="M361.408,354.165a.545.545,0,0,0,.516.168c.09.235.376.23.5.359a.777.777,0,0,0,.667.045.793.793,0,0,1-.4-.2c-.169-.142-.09-.426-.224-.527a.457.457,0,0,0,.1-.37.444.444,0,0,0,.2-.213.667.667,0,0,0,.415-.179c.1.09.336-.028.466.123a.411.411,0,0,0-.561-.443.445.445,0,0,0-.393.051c-.079-.034-.3.078-.4.151a.258.258,0,0,0,.084-.314.4.4,0,0,0,.213-.264c.135.022.336-.067.426-.045a.709.709,0,0,0-.634-.241.416.416,0,0,0-.4.387.479.479,0,0,0-.146.5.281.281,0,0,0-.2.129,1.161,1.161,0,0,0-.407-.087m.053-.306a.611.611,0,0,1,.05-.393c.087-.294.034-.37-.23-.331A2.05,2.05,0,0,0,361.279,352.892Z" transform="translate(-352.996 -345.515)"/>
      <path id="Path_243" data-name="Path 243" class="cls-3" d="M360.77,341.954c.067.067.306.1.331-.115.029-.245-.07-.339-.283-.244C360.8,341.651,360.781,341.881,360.77,341.954Z" transform="translate(-352.68 -335.283)"/>
      <path id="Path_244" data-name="Path 244" class="cls-3" d="M362.22,331.4a.272.272,0,0,0,.39-.1c.089-.174-.028-.308-.213-.3A1.233,1.233,0,0,0,362.22,331.4Z" transform="translate(-354.08 -325.094)"/>
      <path id="Path_245" data-name="Path 245" class="cls-3" d="M366.97,320.442c.022.067.252.292.421.129a.276.276,0,0,0-.084-.493A1.132,1.132,0,0,0,366.97,320.442Z" transform="translate(-358.664 -314.55)"/>
      <path id="Path_246" data-name="Path 246" class="cls-3" d="M376.62,312.311a.378.378,0,0,0,.5.269c.292-.112.168-.477.034-.55A1.444,1.444,0,0,0,376.62,312.311Z" transform="translate(-367.978 -306.785)"/>
      <path id="Path_247" data-name="Path 247" class="cls-3" d="M391.755,309.7a.369.369,0,0,0,.4.454c.4-.006.286-.471.185-.538A1.459,1.459,0,0,0,391.755,309.7Z" transform="translate(-382.58 -304.453)"/>
      <path id="Path_248" data-name="Path 248" class="cls-3" d="M408.3,310c-.045.1-.146.723.634.55C409.033,310.531,409.3,309.953,408.3,310Z" transform="translate(-398.524 -304.825)"/>
      <path id="Path_249" data-name="Path 249" class="cls-3" d="M420.918,311.384c-.078.078.123.712.651.606S421.653,311.283,420.918,311.384Z" transform="translate(-410.717 -306.15)"/>
      <path id="Path_250" data-name="Path 250" class="cls-3" d="M433.609,314.44c-.084.174.042.69.693.69C434.891,315.13,434.271,314.451,433.609,314.44Z" transform="translate(-422.96 -309.11)"/>
      <path id="Path_251" data-name="Path 251" class="cls-3" d="M448.329,318.694c-.042.1-.094.643.673.69C449.558,319.418,449.423,318.633,448.329,318.694Z" transform="translate(-437.17 -313.213)"/>
      <path id="Path_252" data-name="Path 252" class="cls-3" d="M470.849,325.39c-.1.168-.2.589.645.622C472.033,326.034,471.7,325.4,470.849,325.39Z" transform="translate(-458.864 -319.678)"/>
      <path id="Path_253" data-name="Path 253" class="cls-3" d="M491.219,328.469a.379.379,0,0,0,.28.561c.393.079.449-.292.18-.471A.489.489,0,0,0,491.219,328.469Z" transform="translate(-478.533 -322.628)"/>
      <path id="Path_254" data-name="Path 254" class="cls-3" d="M351.913,331.34c-.09.157-.034.538.561.538C352.6,331.878,353.069,331.4,351.913,331.34Zm-4.6,7.313a.872.872,0,1,0-.872-.872A.872.872,0,0,0,347.309,338.653Z" transform="translate(-338.847 -325.421)"/>
      <path id="Path_255" data-name="Path 255" class="cls-3" d="M222.939,163a1.527,1.527,0,0,0-.236.348c-.292.875.487,1.528.942,2.467a2.743,2.743,0,0,1-.247,2.647c-.192.253-.135.325-.381.583a.627.627,0,0,0-.168.583.4.4,0,0,1,.426.213.3.3,0,0,1,.325.034.4.4,0,0,1,.516.135.473.473,0,0,1,.449.157.308.308,0,0,1,.348-.179.27.27,0,0,1,.37-.269.332.332,0,0,1,.426-.393.632.632,0,0,1,.807.067c-.359-.1-.348.28-.651.247.079.224-.123.353-.325.426.129-.062.269-.135.314-.056a.374.374,0,0,1,.393-.011.263.263,0,0,1,.359.168.515.515,0,0,1,.191.673c-.045-.247-.213-.236-.28-.336-.157.056-.314.056-.359-.045a.452.452,0,0,1-.527.034.469.469,0,0,1-.426.37c.056.157-.1.426-.224.561.191.1.135.325.09.46.292.045.045.3.55.471-.247.079-.729,0-.8-.3a.469.469,0,0,1-.4-.516.366.366,0,0,1,.045-.617c-.224.067-.348-.292-.673-.146-.162.073-.589-.05-.583-.2-.067.112-.477.067-.533-.123-.135.073-.449-.051-.443-.236a.287.287,0,0,1-.4-.241c-.163-.022-.179-.168-.168-.292-.146-.067-.107-.208-.051-.376-.1-.112-.056-.269.022-.415-.112-.112-.09-.247-.056-.4a13.118,13.118,0,0,1-2.759-.651c-2.333-.718-2.961.965-2.445,2.019.6,1.217-.067,1.481.135,2.389a.388.388,0,0,1,.314.415c.126.006.216.123.171.348a.39.39,0,0,1,.334.1.293.293,0,0,1,.471-.011c.292-.023.437.213.426.5a.782.782,0,0,1-.067.841,2.212,2.212,0,0,0-.006-.387c-.01-.186-.269-.224-.241-.376a.313.313,0,0,1-.308-.163.3.3,0,0,1-.286.056.511.511,0,0,1,.224.516.487.487,0,0,1-.034.488c-.045.219-.213.3-.432.2a.374.374,0,0,0,.163-.336.437.437,0,0,1-.123-.275.823.823,0,0,1-.577-.225.872.872,0,0,0-.872.873c-.022-.18-.249-.356-.221-.508a.644.644,0,0,1,.606-.88c-.067-.157.168-.32.079-.5a4.219,4.219,0,0,0-.639-.875,1.232,1.232,0,0,0,.022-1.032c-.161-.387-.314-.292-.886.336-.932,1.024-2.176.74-3.275,1.413-.292.179-.583.247-.269-.067a8.339,8.339,0,0,1,1.682-.9,3.965,3.965,0,0,0,2.2-2.983c.791-3.848,3.7-2.58,5.54-1.862,1.727.674,1.413-.852.538-1.772a1.878,1.878,0,0,1-.348-2.669c.886-.123,2.585.185,2.243.482Z" transform="translate(-208.078 -162.451)"/>
      <path id="Path_256" data-name="Path 256" class="cls-3" d="M618.226,395.3a.96.96,0,1,0-.96-.96A.96.96,0,0,0,618.226,395.3Z" transform="translate(-600.241 -385.296)"/>
    </g>
    <g id="Group_367" data-name="Group 367" transform="translate(2.99 2.972)">
      <path id="Path_257" data-name="Path 257" class="cls-4" d="M537.13,178.41a1.863,1.863,0,0,0,.28,1.783,4.22,4.22,0,0,1,.426,4.094" transform="translate(-525.797 -177.76)"/>
      <g id="Group_366" data-name="Group 366" transform="translate(4.378 1.618)">
        <path id="Path_258" data-name="Path 258" class="cls-5" d="M544.7,209.992a.483.483,0,0,0,.3-.325m-.23-.084c.028-.163.28-.233.286-.407m-.28-.227c-.017-.168.252-.32.213-.488m-.359-.118c-.023-.1.224-.275.157-.426m-.342-.163c-.051-.107.118-.23.045-.342m-.314-.129c-.017-.073.087-.233.031-.328m-.3-.227c.022-.028.112-.1.076-.179m-.261-.227c.036-.02.146-.053.132-.135" transform="translate(-536.626 -206.187)"/>
        <path id="Path_259" data-name="Path 259" class="cls-6" d="M367.043,232.97a.446.446,0,0,0-.561.224m.168.174c.028-.191.32-.275.409-.185-.185-.1-.275.258-.112.269m1.509-4.52a.322.322,0,0,0,0,.5m.2-.443a.241.241,0,0,0,.051.37c-.118-.084,0-.23.084-.236s.14.1.039.2m7.705.224c-.314-.084-.566.28-.28.606a.418.418,0,0,1,.494-.466m-.126.217a.117.117,0,0,0-.121.119.129.129,0,0,0,.14.121.118.118,0,0,0,.1-.115m.987-7.01c.051.191.314.269.522.224m0-.123a.281.281,0,0,1-.286-.275c0,.1.219.14.286.079" transform="translate(-365.562 -222.262)"/>
        <path id="Path_260" data-name="Path 260" class="cls-5" d="M341.639,251.815c-.045-.112.135-.224.14-.331s.2-.191.4.011m-.1-1.194c-.039.017-.073.039-.107.05m.494.561a.373.373,0,0,1-.2-.039m0,.252a1,1,0,0,1-.177.065m-1.747,3.323a.46.46,0,0,0,.151.292m.286-.533a.428.428,0,0,0-.056.331m.891.006c-.1-.067-.034-.241-.045-.353s.118-.292.37-.14m-1.267-.146a.545.545,0,0,1,.275.017m1-.337a.362.362,0,0,0-.062.174m.533-.185a.222.222,0,0,0-.179.112m-.909-2.983c.09.031.322.174.331.322m.623-1.052c-.275-.006-.381-.286-.174-.286m.667.662c-.107.045-.056.23.1.32m-.752,1.441a.15.15,0,0,1,.191-.2m.219,2.252c.011-.171.227-.272.314-.079m-1.11.566c-.014-.188.081-.25.165-.261a.287.287,0,0,1,.261.182m-2.1.219c.011-.112.107-.23.207-.213m10.055-4.767c-.073.053-.121.292.157.314m-.583.079c0,.028.036.067.059.084m1.264.365c-.073-.056-.261.171-.09.336m-1.694,1.548c-.042-.16.107-.2.247-.168m-.606-.965a.92.92,0,0,1,.275-.146m-.32.762a.334.334,0,0,1,.129-.28m.364-1.267a.736.736,0,0,0,.107.4m1.228-.393a.272.272,0,0,0-.185.123m.1.336a.713.713,0,0,0,.1-.1m2.016-4.8a.2.2,0,0,1-.325.14m.752-.135c.087.067.387,0,.317-.171m-.681,1.074a.46.46,0,0,1-.213-.135m.83-.331a.326.326,0,0,1-.219-.022m-1.374.583a.754.754,0,0,0,.283-.07m-.451-.922a.241.241,0,0,0-.168.034m1.3.241a.491.491,0,0,1-.132.227" transform="translate(-340.08 -244.555)"/>
        <path id="Path_261" data-name="Path 261" class="cls-6" d="M671.86,259.147c.14-.062.314.415.651.247m.028-.494a.492.492,0,0,0-.078.241" transform="translate(-660.302 -257.064)"/>
      </g>
      <path id="Path_262" data-name="Path 262" class="cls-4" d="M338.931,193.071c.045-.006.123-.022.14-.079m-5.911,5.3a.4.4,0,0,1,.213.5m7.5-6.236a.566.566,0,0,0,.348-.006m.135.118c-.006.079.017.376-.135.437m.056-.039a.4.4,0,0,0,.51-.23m-.2.218a.308.308,0,0,1-.123.449m.179-.263c.163.056.538.062.5-.258m-.129.258c.112.157.606.342.527.017m-.981.437a.3.3,0,0,0,.348-.421m.538.168c.028.129.656.264.572-.028m-.118.168c.118.269.74.247.544-.112m-.1.28c.123.151.673.062.454-.3m-.006.3c.342.258.74-.112.308-.381m.2.3c.3.241.673-.2.409-.32m-2.8.219a.268.268,0,0,0,.342-.157m-.076.118c-.011.255.418.353.527.059m-.143.16c.079.168.454.235.516-.006m-.062.112c.062.168.387.151.477-.022m-.118.112a.339.339,0,0,0,.611-.1m-.073.14c.163.1.51.062.482-.252m-.067.224c.241.2.583.006.415-.325m-.017.583c.129-.022.2-.28.062-.348m-3.051.393a.388.388,0,0,0,.135-.634m.1.387a.4.4,0,0,0,.544-.252m-.314.28a.3.3,0,0,1-.011.415m.09-.258c.3-.185.667.157.393.365m-.05-.381a.35.35,0,0,0,.2-.28m-.062.409c.123-.129.965.135.432.4m-.039-.757c.163.062.247.292,0,.37m.213.191c.179-.185.74-.067.538.168m-.135-.241c.1-.342.7-.129.5.011m-.628-.353a.339.339,0,0,1-.09.325m.594-.393a.267.267,0,0,1-.034.23m.415-.224a.194.194,0,0,1-.034.275m-4.766-2.854c.005.32.118.533.55.331m-.415.051c-.213.286.028.594.449.286m-1.1-.146c.292.314.813.084.477-.393m.354.662c-.056.308.2.37.4.23m-1.492-.449a.457.457,0,0,0,.679.365m-.3.062c0,.443.611.493.751.034m-.219.28a.42.42,0,0,0,.763-.006m-1.195-.639a.4.4,0,0,0,.6.252m-1.721-.348a.437.437,0,0,0,.679.135m-.471.073c-.18.264.179.51.611.118m-.4.208c.073.37.219.667.746.191m-.264.19c.191.235.482.381.757-.017" transform="translate(-329.023 -190.345)"/>
      <path id="Path_263" data-name="Path 263" class="cls-4" d="M506.023,236.04c-.017.28.039.421.258.409a.607.607,0,0,0,.432-.292m-.471.292c-.006.32.247.572.718.247m-.522.129c-.09.241.179.634.707.432m-1.822-1.071c-.034.308.252.516.712.118m-.488.224c.017.252.3.555.723.118m-.522.2c-.034.432.365.555.7.224m-1.3-.544a.276.276,0,0,0,.207-.129m-.017.443a.288.288,0,0,0,.258-.146m-.062.656a.328.328,0,0,0,.432-.1m-.1.1c.168.393.617.376.8-.067m-.084.157a.5.5,0,0,0,.645.3m-.477-.062c-.2.32.062.7.5.325m-.392.151a.458.458,0,0,0,.415.46m-1.245-1.049c-.067.454.258.673.667.432m-1.144-.213a.514.514,0,0,0,.477.028m.219.264c-.1.381.292.656.628.23m-1.172-.46a.406.406,0,0,0,.527.348m.925.393a.321.321,0,0,0,.045.594m-.595-.673a.356.356,0,0,0,.37.381m-.7-.5c-.336.308-.006.667.393.365m-.157.1c-.112.353.308.566.533.207m-1.228-.959c-.123.348.034.578.32.555m-.763-.622c.017.207.2.28.4.236m-.269-.017c-.151.292.079.449.381.336m.92.65c-.051.185-.022.32.252.381m-.236-.118a.376.376,0,0,0-.1.679m-.165-1.035a.331.331,0,0,0,.051.536m-1.522-1.559c-.191.188-.008.707.412.423m.681.233c-.258.213-.14.6.286.493m-.712-.656c-.135.381-.006.516.3.522" transform="translate(-494.887 -233.382)"/>
      <path id="Path_264" data-name="Path 264" class="cls-4" d="M475.823,290.931a.356.356,0,0,0-.067.533.218.218,0,0,0,.353-.084m-.768-.6c-.258.331,0,.723.365.606m1.015.376c-.264.1-.465.335-.3.544.1.123.51.14.628-.336m-.8-.516a.32.32,0,0,0,.179.533m-.2-.123c-.163.09-.269.2-.23.393m-.134-.735c-.062.264.011.426.174.5m-.179-.191c-.252-.017-.381.09-.3.336m.022-.275a.344.344,0,0,1-.18-.527m-.034.331c-.269.011-.387.146-.387.331" transform="translate(-465.904 -286.215)"/>
      <path id="Path_265" data-name="Path 265" class="cls-4" d="M416.585,270.759a.389.389,0,0,0-.185.493.315.315,0,0,0,.443.062m-.807-.762a.321.321,0,0,0,.348.5m-.808-.656c-.168.236.017.628.449.516m.022,1.094c-.045-.28.247-.465.606-.1m-.174-.566a.44.44,0,0,0-.14.37m-1.223-1.447c-.185.314.039.6.437.488m.6.291a.416.416,0,0,0,.022.679m-.191-.37c-.4.006-.421.465-.1.611m-.208-1.071a.31.31,0,0,0,.067.544m-.078.146a.233.233,0,0,0-.353.213m.1-.208c-.151-.359-.594-.3-.555.073m.678-.516a.5.5,0,0,0-.359.219m.028-.622a.306.306,0,0,0,.107.493m-.639-1.06c-.034.241.062.359.365.336m-.258-.028c-.118.292.039.421.342.4m-.275-.045a.342.342,0,0,0,.118.538m-.2-.269c-.32-.039-.37.331-.264.5" transform="translate(-407.485 -266.323)"/>
      <path id="Path_266" data-name="Path 266" class="cls-4" d="M409.329,269.37a.354.354,0,0,0-.2.482c.107.151.32.1.437.022m-.37.045a.318.318,0,0,0,.157.5" transform="translate(-402.304 -265.551)"/>
      <path id="Path_267" data-name="Path 267" class="cls-4" d="M347.212,268.56c-.129.135-.051.409.264.415a.3.3,0,0,0,.3-.4m-.348.4c-.1.224-.039.465.342.426m.163.353c-.235-.107-.55,0-.415.28m-.034-.679a.364.364,0,0,0,.045.443m-.062-.084c-.157.028-.308.112-.213.359m-.023-.2c-.2-.062-.46.084-.3.292m-.033-.2c-.174-.028-.381.157-.213.342m-.067-.152c-.157.039-.342.219-.179.359m.97-1.239a.366.366,0,0,0-.14.538m-.1-1a.376.376,0,0,0,.039.718m-.157-.1a.31.31,0,0,0-.107.488m-.247-1.273c-.135.045-.123.46.236.449m-.605-.309c-.269.179.056.634.493.308m-.241.112a.306.306,0,0,0,.308.409m-.292-.162a.29.29,0,0,0,.135.55m-.813-.948c-.275.252.224.471.409.107m-.791.314c-.135.163.336.589.544-.123m.05-.011c.011.168.112.269.32.28m-.005.163c-.331.05-.437.465-.067.555m-.544-.611a.274.274,0,0,0,.336.258m.168.342c-.3.067-.342.46-.073.437m-.14.365a.256.256,0,0,1-.034-.488" transform="translate(-340.949 -264.769)"/>
      <path id="Path_268" data-name="Path 268" class="cls-4" d="M312.4,303.8a.3.3,0,0,0-.017.482.142.142,0,0,0,.213-.107m-.017.432c.022.146-.519.09-.241-.365m0,.39c-.182.286.115.519.3.275m-.277.07a.225.225,0,0,0,.384.216m-.99-2.37c-.1.207.4.286.437-.14m-.577.449c-.1.4.662.32.465-.2m.017.269a.359.359,0,0,0,.5-.275m-.23.286a.437.437,0,0,0,.207.275m-.572-.168a.374.374,0,0,0,.437.381m-.4-.168c-.123.168-.163.494.224.516m-.813-.46c-.062.174.3.353.516.067m-.628.375c-.031.132.3.308.482-.252m-.146.286a.282.282,0,0,0,.5-.022m-.264.168a.265.265,0,0,0,.342.325m-.763-.37a.31.31,0,0,0,.482.3m-.7-.174a.294.294,0,0,0,.538.224m-.118.107a.373.373,0,0,0,.578.207m-1.138-.039c-.022.09.353.179.409-.135m-.191.213a.3.3,0,0,0,.566.006m-.1.112a.357.357,0,0,0,.555.185m.1.084c-.062.286.236.516.421.359m-.9-.409a.324.324,0,0,0,.522.32m-.993-.477a.315.315,0,0,0,.471.336m-.97-.308c-.079.191.336.348.533.185m-.791.336c.107.123.477,0,.51-.275m-.1.2a.329.329,0,0,0,.583-.1m-.112.174c-.006.241.426.415.566-.028m.507.087a.274.274,0,0,0,.247.328m-.6-.4c-.028.135.168.322.376.247m.04.056c-.056.146-.008.356.188.353m-.168-.081a.194.194,0,0,0,.126.351m-.2-.143a.231.231,0,0,0,.14.432m-.768-1.026a.227.227,0,0,0,.449.067m-.146.179c-.056.179.09.353.32.3m-.275,1.862c.051.073.258-.05.2-.174s-.276-.056-.252.073m.2-.123a.172.172,0,1,0-.337-.073m.107-.123c.073-.123-.174-.292-.275-.112m.09-.073c.067-.18-.213-.258-.236-.1m-.062-.236c.034-.09.348-.034.213.151m.241.224c.123-.112-.084-.342-.213-.258m1.043.6c-.1.011-.2.076-.126.283.051.144.266.151.3.064" transform="translate(-307.422 -297.705)"/>
      <path id="Path_269" data-name="Path 269" class="cls-4" d="M307.9,389.96a.166.166,0,0,0-.207.244.157.157,0,0,0,.28.011m-.609.034c.048.084.286.048.328-.045m-.165-.233a.134.134,0,0,1,.163.05m-.179-1.433a.2.2,0,0,0,.191.348m-.241-.084a.19.19,0,0,0,.23.3m-.191,0c-.09.09,0,.339.23.292m-.264-.168a.227.227,0,0,0-.238.078m.093-1.214a.224.224,0,0,0,.165.379m-.21-.132c-.177.087-.177.437.177.451m-.191-.056a.212.212,0,0,0,.2.342m-.121-.011a.153.153,0,0,0-.011.168m-.1-.283a.276.276,0,0,0-.238.16m-.163-.325c.034-.09.311-.084.331.18m.028-.314a.182.182,0,0,0-.135.121m.014-.942a.3.3,0,0,0,.188.522m-.432.191c0-.093.25-.171.336-.034m-.5-.468a.252.252,0,0,0,.317.087m-1.22-.636a.276.276,0,0,0,.314.286.2.2,0,0,0,.168-.292m-.14.3c-.123.151.028.365.168.3m-.028-.409c.073-.028.314-.062.387.05m-1.167-.006c-.056.084.292.168.409.006m-.118.084c-.011.112.045.3.331.224" transform="translate(-302.283 -379.594)"/>
      <path id="Path_270" data-name="Path 270" class="cls-4" d="M303.748,397.886c.045-.1-.168-.252-.331-.079s.022.37.123.3m-.538-.6c-.084.146.241.412.426.165" transform="translate(-299.902 -389.227)"/>
      <path id="Path_271" data-name="Path 271" class="cls-4" d="M296,404.051a.178.178,0,0,0,.2.275.207.207,0,0,0,.118-.3" transform="translate(-293.118 -395.516)"/>
      <path id="Path_272" data-name="Path 272" class="cls-4" d="M217.054,168.5c-.1.087,0,.292.129.292a.186.186,0,0,0,.188-.235m.219-.073c-.017.129.174.219.3.1m.006-.236a.085.085,0,0,0-.025-.1m-1.018.426c-.109.087.126.328.275.107m.569-.154c-.07.067.042.244.154.191m-.538-.067c.017.12.252.21.4.025m-.272.1c-.036.076.036.2.126.18m2.106.513c-.087.171.191.37.393.163m-.191.092a.234.234,0,0,0,.084.269m-.347-.076a.2.2,0,0,1,.25-.123m-.4-.1a.184.184,0,0,1,.193-.132m6.41-3.368c-.4.006-.23.645.112.516m-.241-.045a.164.164,0,0,0,.241.213m-.045.025c-.118.2.3.5.471.188m-.135.118c.006.185.544.3.466-.067m-.051.2c.129.219.611.241.561-.084m-.106.225c.1.146.572.236.555-.067m-2.468-1.778c.067.174.3.236.55.135m-.7-.011c.157.1-.073.561-.314.376m.314-.09a.307.307,0,0,0,.449-.224m-.107.191c.017.129.2.23.443.179m-.875-.045c.224.191-.1.583-.247.4m.331-.258a.279.279,0,0,0,.409-.174m-.123.174c.023.135.129.185.28.191m-.628-.006a.312.312,0,0,0,.516-.006m-.124.118a.264.264,0,0,0,.331.241m-.942.1c.146.073.3-.2.179-.393m-.011.684c.174.011.2-.252.034-.4m.365.639c.146-.034.1-.353-.252-.381m.7.617c.14-.039.028-.393-.359-.37m.892.493c.1-.146-.219-.393-.477-.264m.74.465c.174.05.292-.409-.258-.337m.578.337c.152-.039.258-.314-.185-.224m.521.247c.135.067.2-.325-.213-.219m-2.047-1a.271.271,0,0,0,.409-.23m-.067.185a.28.28,0,0,1-.073.348m.09-.112a.28.28,0,0,0,.353-.174m-.157.174a.332.332,0,0,1-.028.314m.056-.18a.254.254,0,0,0,.331-.151m-.079.112c.09.056.168.32.017.426m.084-.123a.4.4,0,0,0,.365-.129m-.073.073a.292.292,0,0,1,.168.325m.006-.051a.442.442,0,0,0,.342-.213m-.051.084a.289.289,0,0,1,.14.28m0-.09a.233.233,0,0,0,.23-.179m-.028.079a.279.279,0,0,1,.18.224m-.011-.068a.267.267,0,0,0,.185-.14m.213-.011c.1.1-.034.437-.241.376m-1.913-7.173c-.208.123-.8.084-.5-.4m.561.073c-.409.163-.914-.151-.387-.493m-.14-.112a.381.381,0,0,0-.112.74m-1.217-.51c-.09.174.23.365.449.191a.559.559,0,0,0,.056-.639m-.679.864c-.112.37.712.393.583-.2m-.628.746c.028.28.791.191.544-.376m.09-.157a.559.559,0,0,0,.516.2m-.381-.6c.025.1.2.179.415.1m-8.067,8.429c-.193.137.1.353.213.115m-.365-.008c-.193.137.1.353.213.115m-.373-.011c-.194.137.1.353.213.115m-.381-.02c-.185.1.031.339.219.126m-.4-.033c-.185.1.031.339.219.126m.721-.415c0,.143.269.2.367-.011m-.2.143c-.084.107.07.238.154.191m-.516-.21c-.008.121.227.191.342.059m-.213.068c-.076.1.073.23.168.191m-.454-.208a.208.208,0,0,0,.289.143m-.2-.014a.135.135,0,0,0,.05.2m-.342-.213a.175.175,0,0,0,.278.14m-.247-.039c-.09.07-.079.177.036.191m-.252-.2a.146.146,0,0,0,.16.143m-.64-.149c-.09.048.14.292.283.064m-.5.036c-.112.053.165.323.289.048m.438-.059c-.087.02-.143.146-.07.2m-.213-.151c-.011.051.1.135.182.1m-.255-.081c-.084.053-.039.2.059.179m-.359-.082c-.079.059-.025.177.084.149m.059-.157a.112.112,0,0,0,.132.059m-.547-.109c-.1.042-.092.289.238.154m-.46-.056c-.137.067-.093.252.207.076m.025.014c-.036.028-.076.151.062.1m-.314-.045c-.056.051-.02.154.1.115m-.393-.1c-.1.059.121.137.269-.02m-.2.092c-.045.045-.045.177.073.129m-.359-.076c-.067.051.048.118.258.025m-.174.048c-.079.064-.07.146.045.12m-.278-.084c-.087.079.039.132.191.067m-.188.02c-.149.067-.084.191.008.143m4.955.286c-.034.074.079.135.185.118s.2-.1.123-.219m.005.146a.185.185,0,0,0,.28-.129" transform="translate(-214.397 -159.741)"/>
    </g>
    <g id="Group_368" data-name="Group 368" transform="translate(10.61)">
      <path id="Path_273" data-name="Path 273" class="cls-3" d="M500.446,116.928c-.449-.224-1.38-.639-1.643-.3a1.8,1.8,0,0,1,1.531.544l.112-.241Z" transform="translate(-496.515 -115.033)"/>
      <path id="Path_274" data-name="Path 274" class="cls-3" d="M492.44,90.539c-.519-.6-.824-.469-1.2-.677-.35-.2-.909-.236-1.017.075.512-.249.982.134,1.271.18a1.213,1.213,0,0,1,.736.511l.207-.09Zm1.954-.077c-.269-.617-.845-.456-1.1-.718-.37-.381-1.307-.735-1.694-.471.852-.045,1.215.588,1.671.808.325.157.673.493,1.122.381Z" transform="translate(-488.237 -88.668)"/>
      <path id="Path_275" data-name="Path 275" class="cls-3" d="M468.723,98.315c-.46-.572-1.167-1.077-1.492-.886.426.022.561.32.864.51S468.263,98.4,468.723,98.315Zm-2.187,1.01a1.76,1.76,0,0,0-1.862.28C465.4,99.729,466.5,99.661,466.536,99.325Z" transform="translate(-463.575 -96.588)"/>
      <path id="Path_276" data-name="Path 276" class="cls-3" d="M436,99.663c-.482-.224-.859.089-1.312.045-.864-.084-1.48-.034-1.559.381.494-.443,1.323-.078,1.66-.168a5.215,5.215,0,0,1,1.974.157A1.708,1.708,0,0,0,436,99.663Zm1.514-1.284c-.112-.37-.107-.763.449-.735-.14-.174-.656-.264-.74.387-.611-.449-1.279-.527-1.4-.14.314-.269.8-.073,1.385.589a1.036,1.036,0,0,1,.308-.1Z" transform="translate(-433.129 -96.714)"/>
      <path id="Path_277" data-name="Path 277" class="cls-3" d="M462.97,114.046c-.348-.224-.819-.589.006-.735-.353-.191-.869-.107-.813.544-.942-.381-1.619-.253-1.761.123-.157.415.426.645.527.381-.107.045-.471-.078-.28-.314s1.168-.059,2.1.426c.258.135,1.144.112.224-.426Z" transform="translate(-459.426 -111.87)"/>
      <path id="Path_278" data-name="Path 278" class="cls-3" d="M490.653,77.216c-.268-.548-1.138-.05-1.314-.581C489.1,77.412,490.577,76.982,490.653,77.216Zm5.535.594c.182.091.34-.052.061-.164.183.091.342-.048.063-.16.183.091.342-.048.063-.16A1.061,1.061,0,0,0,496.188,77.81Zm.1-1.054c.4-.426-.034-.572.46-1.009.4-.358.077-.6.46-.875.123-.09.392-.269.415-.449.163.4-.5.46-.46,1.11.029.414-.251.378-.359,1.077C496.777,76.756,496.676,77.081,496.283,76.756Z" transform="translate(-487.356 -74.423)"/>
      <path id="Path_279" data-name="Path 279" class="cls-3" d="M694.56,121.38c.224-.482.482-.473.606-.662.236-.359.735.062,1.155-.258-.073.454-.639.292-.886.583a.775.775,0,0,1-.875.336Z" transform="translate(-685.453 -118.856)"/>
      <path id="Path_280" data-name="Path 280" class="cls-3" d="M618.332,139.192c.393-.314.682-.1.953-.269.684-.415.959.084,1.57-.112-.163.393-1.066.056-1.458.348S617.625,139.73,618.332,139.192Zm-1.144,2.238a.491.491,0,0,0-.409-.437c-.235-.028-.336-.275-.516-.286s-.3-.37-.544-.365-.348.325.23.617,1.217.628,1.239.471Zm-.729.152c-.247.011-.28.37-.516.381.325.174.561-.079.729-.3Z" transform="translate(-609.168 -136.511)"/>
      <path id="Path_281" data-name="Path 281" class="cls-3" d="M643.244,221.229c-.213.179-.275.555.034.662-.185-.255.325-.37.168-.606l-.2-.056Z" transform="translate(-635.751 -216.115)"/>
      <path id="Path_282" data-name="Path 282" class="cls-3" d="M653.218,220.628c-.168.325.264.365.151.611.247-.056.286-.522.062-.645Z" transform="translate(-645.513 -215.502)"/>
      <path id="Path_283" data-name="Path 283" class="cls-3" d="M606.98,192.353a1.181,1.181,0,0,1,1.021.55.708.708,0,0,0,.864.135c.179-.179.078-.561-.37-.437-.112-.191-.437-.123-.594-.28S607.137,191.714,606.98,192.353Z" transform="translate(-600.924 -187.923)"/>
      <path id="Path_284" data-name="Path 284" class="cls-7" d="M626.215,202.31c-.107.022-.14.207-.073.3m.3-.191a.207.207,0,0,1-.006.174m-1.1-.516c.207.011.247.163.471.219" transform="translate(-618.644 -197.633)"/>
      <path id="Path_285" data-name="Path 285" class="cls-3" d="M619.964,182.4a7.206,7.206,0,0,1,1.638.538,1.9,1.9,0,0,0,1.376.123c.478-.135,1.4-.258,1.353.336.25-.3-.068-.617-.705-.673.011-.292-.3-.555-.525-.381.208-.028.387.359-.023.516a.367.367,0,0,0-.512-.426c.193.056.389.38-.044.5a1.354,1.354,0,0,1-.967-.2C621.26,182.562,619.6,181.911,619.964,182.4Z" transform="translate(-613.405 -178.468)"/>
      <path id="Path_286" data-name="Path 286" class="cls-3" d="M646.951,179.041c-.224.1-.079.336-.426.471s-.589.443-.51.707c.236-.516.651-.493.8-.7S647.17,179.024,646.951,179.041Z" transform="translate(-638.584 -175.396)"/>
      <path id="Path_287" data-name="Path 287" class="cls-3" d="M643.384,168.128c-.011.409-.333.26-.208.836a1.22,1.22,0,0,1-.011.763c.362-.264.129-.817.292-1.026a1.339,1.339,0,0,0,.219-.393c-.084.235-.078.673.151.785-.185-.437.5-.8.028-1.3a.665.665,0,0,1-.471.336Zm-1.144-.409a.551.551,0,0,1,.062.415,1,1,0,0,0,.325-.359.236.236,0,0,1,.1.443.632.632,0,0,0,.493-.151,1.207,1.207,0,0,0-.981-.348Z" transform="translate(-634.955 -164.45)"/>
      <path id="Path_288" data-name="Path 288" class="cls-3" d="M455.571,118.721a.43.43,0,0,0-.207-.087c-.34-.07-.164-.376.125-.373.617-.673.963-.154,1.715-.367a.838.838,0,0,1,.587.009.8.8,0,0,1,1.017.1.23.23,0,0,1,.134-.106c.263-.073.477.151.549.443a.745.745,0,0,1,.594.2c.214-.11.361-.115.415,0,.191-.09.438-.146.561.157s-.292.213-.359.852a.507.507,0,0,1-.83.314c-.556-.377-1.1-.437-1.368.135s-.48.9-1.133.718a.693.693,0,0,0-.729.28c-.191.258-.482.017-.83.045.437-.067.27-.177.651-.2.348-.022.258-.348.482-.393-.875.224-.841-.1-1.559.123.314-.4.808-.179,1.054-.415-.651-.011-.941-.436-1.234-.258-.46.28-.258,1.079-1.458,1.009a1.5,1.5,0,0,0-1.3.393c.606-1.256,1.43-.566,1.828-.965a2.963,2.963,0,0,0,.538-.639.266.266,0,0,1,.176-.142c-1-.314-.395-.8.581-.837Z" transform="translate(-451.775 -116.256)"/>
      <path id="Path_289" data-name="Path 289" class="cls-7" d="M664.107,140.11a.283.283,0,0,1,.023.123c0,.247-.37.258-.392.622-.012.191-.034.3-.163.275s-.241-.224-.118-.46" transform="translate(-655.382 -137.822)"/>
      <path id="Path_290" data-name="Path 290" class="cls-3" d="M539.964,122.1a.474.474,0,0,0-.269-.093m2.3-.36c.3.129.442.437.873.452.415.015.673.617,1.368.224l.055-.03m-1.277-.543a.55.55,0,0,0-.059.357m-1.3.911c-.527,0-.662.269-.662.527a.652.652,0,0,0,.684.594.6.6,0,0,0,.673-.561A.625.625,0,0,0,541.658,123.022Z" transform="translate(-535.983 -120.005)"/>
      <path id="Path_291" data-name="Path 291" class="cls-3" d="M591.457,174.11c-.011-.146-.275-.123-.264-.236s.146-.157.146-.314.235-.168.314-.045.314.365.365.241m-.364-.241a.431.431,0,0,0-.017.572m.185-.381a.353.353,0,0,0-.005.292" transform="translate(-585.687 -169.982)"/>
      <path id="Path_292" data-name="Path 292" class="cls-4" d="M642.1,131.572c.412.034.482-.421.174-.449m-.681-.777c-.143-.182-.471-.244-.477.143" transform="translate(-633.871 -128.261)"/>
      <path id="Path_293" data-name="Path 293" class="cls-3" d="M524.234,142.143a.436.436,0,0,0-.69-.224.355.355,0,0,0,.18.6,1.372,1.372,0,0,1,.51-.376Zm-.154-.219c-.2-.179-.5.16-.23.471m-3.611.379a1.137,1.137,0,0,1,.636.177,1.483,1.483,0,0,0,1.122.09c-.37.135-.65-.426-.931-.359s-.794.171-1.009-.034c.527.034.811-.384,1.413-.022a1.05,1.05,0,0,0,.572.157c-.493-.594-1.144-.213-1.211-.7.3.32,1.023-.073,1.394.527m-1.287-.438c-.069-.086-.038-.172-.112-.241" transform="translate(-517.028 -139.474)"/>
    </g>
    <path id="Path_294" data-name="Path 294" d="M631.769,132.73c-.123-.132-.392-.028-.317.238A.418.418,0,0,1,631.769,132.73Zm-.763.718a.921.921,0,0,1,.246-.135.542.542,0,0,0-.166-.228C631.023,133.042,630.839,133.289,631.007,133.449Z" transform="translate(-613.437 -130.644)"/>
    <g id="Group_369" data-name="Group 369" transform="translate(14.864 1.824)">
      <path id="Path_295" data-name="Path 295" class="cls-5" d="M557.611,127.3c-.2-.135-.387-.123-.449-.011-.146-.006-.266.1-.272.314m.311.09c-.241-.165-.572-.1-.55.266m-.146.21c.118-.1.286-.163.415.006m1.385-.37a.27.27,0,0,0-.006.3c-.09-.118-.314-.118-.555.2m1.094-.516c-.292.034-.286.224-.051.308m-2.024-1.021c-.247-.05-.426.1-.084.219m.555-.387c-.348-.084-.488.006-.331.084m-.673,1.312c-.011.123.056.286.258.1m-.19.269a.162.162,0,0,1-.028.1m-.78-1.744c-.213-.062-.252-.258-.005-.241m-.067.7c-.236-.079-.236-.308-.039-.286m.477.168c-.275-.067-.286-.258-.078-.23m.112-.353c-.146-.011-.37.151.006.247m.4.079c-.342-.05-.336.09-.135.179m.393-.5c-.264-.05-.353.107-.174.174m-.656.8c-.065-.053-.118-.308.191-.233m.449.154c-.207-.056-.4.146-.213.264m.488-.5c-.219-.039-.4.022-.286.1" transform="translate(-555.237 -126.778)"/>
    </g>
    <path id="Path_296" data-name="Path 296" class="cls-3" d="M646,134.31a.417.417,0,0,0-.305.238" transform="translate(-627.682 -132.224)"/>
  </g>
</svg>
