<svg id="_003---Call" data-name="003---Call" xmlns="http://www.w3.org/2000/svg" width="18.586" height="20.433" viewBox="0 0 18.586 20.433">
  <defs>
    <style>
      .cls-1 {
        fill: #fff;
      }
    </style>
  </defs>
  <path id="Shape" class="cls-1" d="M8.694,12.012A8.581,8.581,0,0,1,6.429,7.33a.744.744,0,0,1,.183-.586L8.048,5.166a.758.758,0,0,0,.09-.872L5.852.391a.61.61,0,0,0-.83-.257l-3.669,1.9a.717.717,0,0,0-.352.7,20.38,20.38,0,0,0,5.4,11.8c4.413,4.852,8.9,5.727,10.73,5.939a.628.628,0,0,0,.637-.388L19.5,16.049a.745.745,0,0,0-.232-.912l-3.549-2.513a.6.6,0,0,0-.793.1L13.486,14.3a.6.6,0,0,1-.533.2A7.27,7.27,0,0,1,8.694,12.012Z" transform="translate(-0.997 -0.042)"/>
  <path id="Shape-2" data-name="Shape" class="cls-1" d="M33.633,16.226a.593.593,0,0,1-.593-.593,4.452,4.452,0,0,0-4.447-4.447.593.593,0,1,1,0-1.186,5.639,5.639,0,0,1,5.633,5.633A.593.593,0,0,1,33.633,16.226Z" transform="translate(-18.98 -6.16)"/>
  <path id="Shape-3" data-name="Shape" class="cls-1" d="M36.6,9.191A.593.593,0,0,1,36,8.6a7.42,7.42,0,0,0-7.412-7.412.593.593,0,1,1,0-1.186,8.607,8.607,0,0,1,8.6,8.6.593.593,0,0,1-.593.593Z" transform="translate(-18.605)"/>
</svg>
