<svg xmlns="http://www.w3.org/2000/svg" width="50" height="45" viewBox="0 0 113.428 100.467">
  <defs>
    <style>
      .cls-1 {
        fill: #326f90;
      }
    </style>
  </defs>
  <g id="_8386102071558424411" data-name="8386102071558424411" transform="translate(3 -3)">
    <g id="Group_315" data-name="Group 315" transform="translate(-3 3)">
      <path id="Path_216" data-name="Path 216" class="cls-1" d="M90.742,0H22.686C10.157,0,0,9,0,20.093V80.374c0,11.1,10.156,20.094,22.686,20.094H90.742c12.529,0,22.686-9,22.686-20.094V20.093C113.428,9,103.271,0,90.742,0Zm11.343,75.35c0,8.323-7.617,15.07-17.014,15.07H28.357c-9.4,0-17.014-6.748-17.014-15.07V25.117c0-8.323,7.617-15.07,17.014-15.07H85.071c9.4,0,17.014,6.748,17.014,15.07V75.35ZM56.715,30.14c-27.225.1-34.028,20.094-34.028,20.094s6.8,19.993,34.028,20.094c27.165.1,34.028-20.094,34.028-20.094S83.88,30.04,56.715,30.14Zm0,35.164c-9.4,0-17.014-6.747-17.014-15.07s7.617-15.07,17.014-15.07,17.014,6.748,17.014,15.07S66.112,65.3,56.715,65.3Zm0-20.094c-3.132,0-5.671,2.249-5.671,5.023s2.539,5.023,5.671,5.023,5.671-2.249,5.671-5.023-2.538-5.023-5.671-5.023Z" transform="translate(0)"/>
    </g>
  </g>
</svg>
