<svg xmlns="http://www.w3.org/2000/svg" width="17.336" height="15.694" viewBox="0 0 38.336 33.694">
  <defs>
    <style>
      .cls-1 {
        fill: #fff;
      }
    </style>
  </defs>
  <g id="fax_1_" data-name="fax (1)" transform="translate(0 -31)">
    <path id="Path_155" data-name="Path 155" class="cls-1" d="M34.967,211H3.369A3.373,3.373,0,0,0,0,214.369v6.739a3.373,3.373,0,0,0,3.369,3.369H7.937v-1.123a3.373,3.373,0,0,1,3.369-3.369H27.03a3.373,3.373,0,0,1,3.369,3.369v1.123h4.567a3.373,3.373,0,0,0,3.369-3.369v-6.739A3.373,3.373,0,0,0,34.967,211Zm-11.306,5.616a1.123,1.123,0,1,1,1.123-1.123A1.123,1.123,0,0,1,23.661,216.616Zm4.493,0a1.123,1.123,0,1,1,1.123-1.123A1.123,1.123,0,0,1,28.153,216.616Z" transform="translate(0 -166.522)"/>
    <path id="Path_156" data-name="Path 156" class="cls-1" d="M331,32.518V36.9h4.379A5.631,5.631,0,0,0,331,32.518Z" transform="translate(-306.216 -1.404)"/>
    <path id="Path_157" data-name="Path 157" class="cls-1" d="M122.123,31A1.122,1.122,0,0,0,121,32.123V42.231h20.216V37.739H135.6a1.122,1.122,0,0,1-1.123-1.123V31Z" transform="translate(-111.94)"/>
    <path id="Path_158" data-name="Path 158" class="cls-1" d="M152.847,369.985a1.122,1.122,0,0,0,1.123-1.123v-6.739A1.122,1.122,0,0,0,152.847,361H137.123A1.122,1.122,0,0,0,136,362.123v6.739a1.122,1.122,0,0,0,1.123,1.123Zm-12.354-5.616h8.985a1.123,1.123,0,1,1,0,2.246h-8.985a1.123,1.123,0,1,1,0-2.246Z" transform="translate(-125.817 -305.291)"/>
  </g>
</svg>
