<svg xmlns="http://www.w3.org/2000/svg" xmlns:xlink="http://www.w3.org/1999/xlink" width="47" height="32" viewBox="0 0 50 50">
  <defs>
    <style>
      .cls-1 {
        fill: url(#linear-gradient);
      }

      .cls-2 {
        fill: #fff;
        fill-rule: evenodd;
      }

      .cls-3, .cls-4 {
        stroke: none;
      }

      .cls-4 {
        fill: #707070;
      }
    </style>
    <linearGradient id="linear-gradient" x1="0.781" y1="0.263" x2="0.445" y2="0.738" gradientUnits="objectBoundingBox">
      <stop offset="0" stop-color="#9850a2"/>
      <stop offset="1" stop-color="#650808"/>
    </linearGradient>
  </defs>
  <g id="Group_51" data-name="Group 51" transform="translate(-1497 -5002)">
    <g id="Path_29" data-name="Path 29" class="cls-1" transform="translate(1497 5002)">
      <path class="cls-3" d="M 25 49.5 C 21.69230079650879 49.5 18.48381042480469 48.85229110717773 15.46364974975586 47.57487106323242 C 12.54625988006592 46.3409309387207 9.926079750061035 44.57432174682617 7.675879955291748 42.32411956787109 C 5.425680160522461 40.07392120361328 3.659070014953613 37.45373916625977 2.425129890441895 34.53635025024414 C 1.147709965705872 31.51618957519531 0.5 28.30769920349121 0.5 25 C 0.5 21.69230079650879 1.147709965705872 18.48381042480469 2.425129890441895 15.46364974975586 C 3.659070014953613 12.54625988006592 5.425680160522461 9.926079750061035 7.675879955291748 7.675879955291748 C 9.926079750061035 5.425680160522461 12.54625988006592 3.659070014953613 15.46364974975586 2.425129890441895 C 18.48381042480469 1.147709965705872 21.69230079650879 0.5 25 0.5 C 28.30769920349121 0.5 31.51618957519531 1.147709965705872 34.53635025024414 2.425129890441895 C 37.45373916625977 3.659070014953613 40.07392120361328 5.425680160522461 42.32411956787109 7.675879955291748 C 44.57432174682617 9.926079750061035 46.3409309387207 12.54625988006592 47.57487106323242 15.46364974975586 C 48.85229110717773 18.48381042480469 49.5 21.69230079650879 49.5 25 C 49.5 28.30769920349121 48.85229110717773 31.51618957519531 47.57487106323242 34.53635025024414 C 46.3409309387207 37.45373916625977 44.57432174682617 40.07392120361328 42.32411956787109 42.32411956787109 C 40.07392120361328 44.57432174682617 37.45373916625977 46.3409309387207 34.53635025024414 47.57487106323242 C 31.51618957519531 48.85229110717773 28.30769920349121 49.5 25 49.5 Z"/>
      <path class="cls-4" d="M 25 1 C 21.75958061218262 1 18.61661911010742 1.634418487548828 15.65842056274414 2.885631561279297 C 12.80064010620117 4.094371795654297 10.23387908935547 5.825000762939453 8.029441833496094 8.029441833496094 C 5.825000762939453 10.23387908935547 4.094371795654297 12.80064010620117 2.885631561279297 15.65842056274414 C 1.634418487548828 18.61661911010742 1 21.75958061218262 1 25 C 1 28.24041938781738 1.634418487548828 31.38338088989258 2.885631561279297 34.34157943725586 C 4.094371795654297 37.19935989379883 5.825000762939453 39.76612091064453 8.029441833496094 41.97055816650391 C 10.23387908935547 44.17499923706055 12.80064010620117 45.90563201904297 15.65842056274414 47.1143684387207 C 18.61661911010742 48.36558151245117 21.75958061218262 49 25 49 C 28.24041938781738 49 31.38338088989258 48.36558151245117 34.34157943725586 47.1143684387207 C 37.19935989379883 45.90563201904297 39.76612091064453 44.17499923706055 41.97055816650391 41.97055816650391 C 44.17499923706055 39.76612091064453 45.90563201904297 37.19935989379883 47.1143684387207 34.34157943725586 C 48.36558151245117 31.38338088989258 49 28.24041938781738 49 25 C 49 21.75958061218262 48.36558151245117 18.61661911010742 47.1143684387207 15.65842056274414 C 45.90563201904297 12.80064010620117 44.17499923706055 10.23387908935547 41.97055816650391 8.029441833496094 C 39.76612091064453 5.825000762939453 37.19935989379883 4.094371795654297 34.34157943725586 2.885631561279297 C 31.38338088989258 1.634418487548828 28.24041938781738 1 25 1 M 25 0 C 38.80712127685547 0 50 11.19287872314453 50 25 C 50 38.80712127685547 38.80712127685547 50 25 50 C 11.19287872314453 50 0 38.80712127685547 0 25 C 0 11.19287872314453 11.19287872314453 0 25 0 Z"/>
    </g>
    <path id="_5279112_camera_instagram_social_media_instagram_logo_icon" data-name="5279112_camera_instagram_social media_instagram logo_icon" class="cls-2" d="M25,0A25,25,0,1,1,0,25,25.012,25.012,0,0,1,25,0Zm0,9.375c-4.243,0-4.776.018-6.442.094a11.47,11.47,0,0,0-3.793.726,7.99,7.99,0,0,0-4.57,4.57,11.471,11.471,0,0,0-.726,3.793c-.076,1.667-.094,2.2-.094,6.442s.018,4.776.094,6.442a11.471,11.471,0,0,0,.726,3.793,7.99,7.99,0,0,0,4.57,4.57,11.473,11.473,0,0,0,3.793.726c1.667.076,2.2.094,6.442.094s4.776-.018,6.442-.094a11.472,11.472,0,0,0,3.793-.726,7.99,7.99,0,0,0,4.57-4.57,11.472,11.472,0,0,0,.726-3.793c.076-1.667.094-2.2.094-6.442s-.018-4.776-.094-6.442a11.472,11.472,0,0,0-.726-3.793,7.99,7.99,0,0,0-4.57-4.57,11.469,11.469,0,0,0-3.793-.726C29.776,9.393,29.243,9.375,25,9.375Zm0,2.815c4.172,0,4.666.016,6.314.091a8.646,8.646,0,0,1,2.9.538,5.175,5.175,0,0,1,2.965,2.965,8.643,8.643,0,0,1,.538,2.9c.075,1.648.091,2.142.091,6.314s-.016,4.666-.091,6.314a8.643,8.643,0,0,1-.538,2.9,5.175,5.175,0,0,1-2.965,2.965,8.643,8.643,0,0,1-2.9.538c-1.647.075-2.142.091-6.314.091s-4.666-.016-6.314-.091a8.643,8.643,0,0,1-2.9-.538,5.174,5.174,0,0,1-2.965-2.965,8.645,8.645,0,0,1-.538-2.9c-.075-1.648-.091-2.142-.091-6.314s.016-4.666.091-6.314a8.645,8.645,0,0,1,.538-2.9,5.174,5.174,0,0,1,2.965-2.965,8.646,8.646,0,0,1,2.9-.538c1.648-.075,2.142-.091,6.314-.091Zm0,4.786A8.024,8.024,0,1,0,33.024,25,8.024,8.024,0,0,0,25,16.976Zm0,13.232A5.208,5.208,0,1,1,30.208,25,5.208,5.208,0,0,1,25,30.208ZM35.216,16.659a1.875,1.875,0,1,1-1.875-1.875A1.875,1.875,0,0,1,35.216,16.659Z" transform="translate(1497 5002)"/>
  </g>
</svg>
