<svg xmlns="http://www.w3.org/2000/svg" width="47" height="32" viewBox="0 0 50 50">
  <defs>
    <style>
      .cls-1 {
        fill: #fff;
        stroke: #707070;
      }

      .cls-2 {
        fill: #3b5998;
        fill-rule: evenodd;
      }

      .cls-3 {
        stroke: none;
      }

      .cls-4 {
        fill: none;
      }
    </style>
  </defs>
  <g id="Group_52" data-name="Group 52" transform="translate(-1491 -4945)">
    <g id="Ellipse_22" data-name="Ellipse 22" class="cls-1" transform="translate(1491 4945)">
      <circle class="cls-3" cx="25" cy="25" r="25"/>
      <circle class="cls-4" cx="25" cy="25" r="24.5"/>
    </g>
    <g id="Page-1" transform="translate(1450 4941)">
      <g id="Facebook" transform="translate(41 4)">
        <path id="Oval-1" class="cls-2" d="M25,50A25,25,0,1,0,0,25,25,25,0,0,0,25,50Zm0-3A22,22,0,1,0,3,25,22,22,0,0,0,25,47Zm1.815-11V25h3.254l.431-3.791H26.815l.005-1.9c0-.989.1-1.519,1.623-1.519h2.034V14H27.222c-3.909,0-5.285,1.839-5.285,4.932v2.276H19.5V25h2.437V36Zm0,0"/>
      </g>
    </g>
  </g>
</svg>
