<svg id="Group_197" data-name="Group 197" xmlns="http://www.w3.org/2000/svg" width="23.756" height="25.756" viewBox="0 0 39.756 39.756">
  <defs>
    <style>
      .cls-1 {
        fill: #dcedef;
      }

      .cls-2 {
        fill: #fff;
      }
    </style>
  </defs>
  <g id="Group_89" data-name="Group 89">
    <g id="Group_88" data-name="Group 88">
      <path id="Path_93" data-name="Path 93" class="cls-1" d="M19.878,0A19.878,19.878,0,1,0,39.756,19.878,19.9,19.9,0,0,0,19.878,0Zm0,36.677a16.8,16.8,0,1,1,16.8-16.8A16.818,16.818,0,0,1,19.878,36.677Z"/>
    </g>
  </g>
  <g id="Group_91" data-name="Group 91" transform="translate(10.639 10.501)">
    <g id="Group_90" data-name="Group 90">
      <path id="Path_94" data-name="Path 94" class="cls-2" d="M153.959,142.937H147.8v-6.159a1.54,1.54,0,1,0-3.08,0v6.159h-6.159a1.54,1.54,0,1,0,0,3.08h6.159v6.159a1.54,1.54,0,1,0,3.08,0v-6.159h6.159a1.54,1.54,0,1,0,0-3.08Z" transform="translate(-137.022 -135.238)"/>
    </g>
  </g>
</svg>
