<svg xmlns="http://www.w3.org/2000/svg" xmlns:xlink="http://www.w3.org/1999/xlink" width="47" height="32" viewBox="0 0 50 50">
  <defs>
    <style>
      .cls-1, .cls-3, .cls-5 {
        fill: #fff;
      }

      .cls-2 {
        fill: #ee3325;
      }

      .cls-3 {
        opacity: 0.2;
      }

      .cls-4 {
        fill: #010101;
        opacity: 0.1;
      }

      .cls-6 {
        fill: url(#linear-gradient);
      }

      .cls-7 {
        fill: url(#linear-gradient-2);
      }

      .cls-8 {
        fill: url(#linear-gradient-3);
      }

      .cls-10, .cls-9 {
        stroke: none;
      }

      .cls-10 {
        fill: #707070;
      }
    </style>
    <linearGradient id="linear-gradient" x1="-0.071" y1="0.111" x2="0.75" y2="1.389" gradientUnits="objectBoundingBox">
      <stop offset="0" stop-color="#010101" stop-opacity="0"/>
      <stop offset="1" stop-color="#010101" stop-opacity="0.102"/>
    </linearGradient>
    <linearGradient id="linear-gradient-2" x1="0.208" y1="0.182" x2="0.795" y2="1.093" gradientUnits="objectBoundingBox">
      <stop offset="0" stop-color="#010101" stop-opacity="0.102"/>
      <stop offset="1" stop-color="#010101" stop-opacity="0"/>
    </linearGradient>
    <linearGradient id="linear-gradient-3" y1="0.189" x2="1" y2="0.811" gradientUnits="objectBoundingBox">
      <stop offset="0" stop-color="#fff" stop-opacity="0.2"/>
      <stop offset="1" stop-color="#fff" stop-opacity="0"/>
    </linearGradient>
  </defs>
  <g id="Group_53" data-name="Group 53" transform="translate(-1494 -5062)">
    <g id="Path_30" data-name="Path 30" class="cls-1" transform="translate(1494 5062)">
      <path class="cls-9" d="M 25 49.5 C 21.69230079650879 49.5 18.48381042480469 48.85229110717773 15.46364974975586 47.57487106323242 C 12.54625988006592 46.3409309387207 9.926079750061035 44.57432174682617 7.675879955291748 42.32411956787109 C 5.425680160522461 40.07392120361328 3.659070014953613 37.45373916625977 2.425129890441895 34.53635025024414 C 1.147709965705872 31.51618957519531 0.5 28.30769920349121 0.5 25 C 0.5 21.69230079650879 1.147709965705872 18.48381042480469 2.425129890441895 15.46364974975586 C 3.659070014953613 12.54625988006592 5.425680160522461 9.926079750061035 7.675879955291748 7.675879955291748 C 9.926079750061035 5.425680160522461 12.54625988006592 3.659070014953613 15.46364974975586 2.425129890441895 C 18.48381042480469 1.147709965705872 21.69230079650879 0.5 25 0.5 C 28.30769920349121 0.5 31.51618957519531 1.147709965705872 34.53635025024414 2.425129890441895 C 37.45373916625977 3.659070014953613 40.07392120361328 5.425680160522461 42.32411956787109 7.675879955291748 C 44.57432174682617 9.926079750061035 46.3409309387207 12.54625988006592 47.57487106323242 15.46364974975586 C 48.85229110717773 18.48381042480469 49.5 21.69230079650879 49.5 25 C 49.5 28.30769920349121 48.85229110717773 31.51618957519531 47.57487106323242 34.53635025024414 C 46.3409309387207 37.45373916625977 44.57432174682617 40.07392120361328 42.32411956787109 42.32411956787109 C 40.07392120361328 44.57432174682617 37.45373916625977 46.3409309387207 34.53635025024414 47.57487106323242 C 31.51618957519531 48.85229110717773 28.30769920349121 49.5 25 49.5 Z"/>
      <path class="cls-10" d="M 25 1 C 21.75958061218262 1 18.61661911010742 1.634418487548828 15.65842056274414 2.885631561279297 C 12.80064010620117 4.094371795654297 10.23387908935547 5.825000762939453 8.029441833496094 8.029441833496094 C 5.825000762939453 10.23387908935547 4.094371795654297 12.80064010620117 2.885631561279297 15.65842056274414 C 1.634418487548828 18.61661911010742 1 21.75958061218262 1 25 C 1 28.24041938781738 1.634418487548828 31.38338088989258 2.885631561279297 34.34157943725586 C 4.094371795654297 37.19935989379883 5.825000762939453 39.76612091064453 8.029441833496094 41.97055816650391 C 10.23387908935547 44.17499923706055 12.80064010620117 45.90563201904297 15.65842056274414 47.1143684387207 C 18.61661911010742 48.36558151245117 21.75958061218262 49 25 49 C 28.24041938781738 49 31.38338088989258 48.36558151245117 34.34157943725586 47.1143684387207 C 37.19935989379883 45.90563201904297 39.76612091064453 44.17499923706055 41.97055816650391 41.97055816650391 C 44.17499923706055 39.76612091064453 45.90563201904297 37.19935989379883 47.1143684387207 34.34157943725586 C 48.36558151245117 31.38338088989258 49 28.24041938781738 49 25 C 49 21.75958061218262 48.36558151245117 18.61661911010742 47.1143684387207 15.65842056274414 C 45.90563201904297 12.80064010620117 44.17499923706055 10.23387908935547 41.97055816650391 8.029441833496094 C 39.76612091064453 5.825000762939453 37.19935989379883 4.094371795654297 34.34157943725586 2.885631561279297 C 31.38338088989258 1.634418487548828 28.24041938781738 1 25 1 M 25 0 C 38.80712127685547 0 50 11.19287872314453 50 25 C 50 38.80712127685547 38.80712127685547 50 25 50 C 11.19287872314453 50 0 38.80712127685547 0 25 C 0 11.19287872314453 11.19287872314453 0 25 0 Z"/>
    </g>
    <g id="_2993724_social_media_youtube_icon" data-name="2993724_social media_youtube_icon" transform="translate(1507 5075)">
      <path id="Path_31" data-name="Path 31" class="cls-2" d="M20.934,3.673l-1.9-.237a57,57,0,0,0-14.07,0l-1.9.237A3.506,3.506,0,0,0,0,7.147v9.7a3.506,3.506,0,0,0,3.066,3.474l1.9.237A56.966,56.966,0,0,0,12,21a56.961,56.961,0,0,0,7.035-.438l1.9-.237A3.506,3.506,0,0,0,24,16.851v-9.7A3.506,3.506,0,0,0,20.934,3.673Z"/>
      <path id="Path_32" data-name="Path 32" class="cls-3" d="M20.934,3.675l-1.9-.237a57,57,0,0,0-14.07,0l-1.9.237A3.506,3.506,0,0,0,0,7.148V7.4A3.506,3.506,0,0,1,3.066,3.925l1.9-.237a57,57,0,0,1,14.07,0l1.9.237A3.506,3.506,0,0,1,24,7.4v-.25A3.506,3.506,0,0,0,20.934,3.675Z"/>
      <path id="Path_33" data-name="Path 33" class="cls-4" d="M20.934,20.073l-1.9.237A56.955,56.955,0,0,1,12,20.748a56.968,56.968,0,0,1-7.035-.438l-1.9-.237A3.506,3.506,0,0,1,0,16.6v.25a3.506,3.506,0,0,0,3.066,3.473l1.9.237A56.963,56.963,0,0,0,12,21a56.968,56.968,0,0,0,7.035-.438l1.9-.237A3.506,3.506,0,0,0,24,16.85V16.6A3.506,3.506,0,0,1,20.934,20.073Z"/>
      <g id="XMLID_1334_">
        <path id="Path_34" data-name="Path 34" class="cls-5" d="M9.5,7.5v9l7-4.5Z"/>
      </g>
      <g id="XMLID_1304_">
        <path id="Path_35" data-name="Path 35" class="cls-6" d="M9.5,7.5V12h7Z"/>
      </g>
      <path id="Path_36" data-name="Path 36" class="cls-7" d="M16.5,12l-7,4.5,4.439,4.439c1.7-.059,3.41-.167,5.1-.377l1.9-.237a3.487,3.487,0,0,0,2.419-1.471Z"/>
      <path id="Path_37" data-name="Path 37" class="cls-8" d="M20.934,3.673l-1.9-.237a57,57,0,0,0-14.07,0l-1.9.237A3.506,3.506,0,0,0,0,7.147v9.7a3.506,3.506,0,0,0,3.066,3.474l1.9.237A56.966,56.966,0,0,0,12,21a56.961,56.961,0,0,0,7.035-.438l1.9-.237A3.506,3.506,0,0,0,24,16.851v-9.7A3.506,3.506,0,0,0,20.934,3.673Z"/>
    </g>
  </g>
</svg>
