<svg xmlns="http://www.w3.org/2000/svg" width="63.273" height="42.248" viewBox="0 0 93.273 72.248">
  <defs>
    <style>
      .cls-1 {
        fill: #fff;
      }
    </style>
  </defs>
  <g id="home_1_" data-name="home (1)" transform="translate(-12.999 -66.994)">
    <g id="Group_66" data-name="Group 66" transform="translate(12.999 66.994)">
      <path id="Path_89" data-name="Path 89" class="cls-1" d="M98.79,120.939l-33.034,27.9a.816.816,0,0,1-.029.176.824.824,0,0,0-.029.176v28.252a3.662,3.662,0,0,0,1.092,2.649,3.5,3.5,0,0,0,2.585,1.12H91.436v-22.6h14.709v22.6H128.2a3.489,3.489,0,0,0,2.585-1.12,3.662,3.662,0,0,0,1.093-2.649V149.192a.846.846,0,0,0-.058-.352Z" transform="translate(-52.154 -108.965)"/>
      <path id="Path_90" data-name="Path 90" class="cls-1" d="M92.629,83.782,79.959,73.07V49.055a1.848,1.848,0,0,0-.522-1.354,1.78,1.78,0,0,0-1.33-.529H67a1.788,1.788,0,0,0-1.331.529,1.853,1.853,0,0,0-.52,1.354V60.532L51.033,48.524a7.08,7.08,0,0,0-8.793,0L.642,83.782a1.719,1.719,0,0,0-.636,1.265,1.929,1.929,0,0,0,.4,1.384L4,90.787a1.963,1.963,0,0,0,1.215.648A2.124,2.124,0,0,0,6.6,91.023L46.636,57.059,86.671,91.022a1.764,1.764,0,0,0,1.215.41h.174a1.965,1.965,0,0,0,1.215-.647l3.587-4.355a1.928,1.928,0,0,0,.4-1.385A1.725,1.725,0,0,0,92.629,83.782Z" transform="translate(0.001 -46.994)"/>
    </g>
  </g>
</svg>
