<svg xmlns="http://www.w3.org/2000/svg" width="18.858" height="17.37" viewBox="0 0 31.858 30.37">
  <defs>
    <style>
      .cls-1 {
        fill: #fff;
       
      }
    </style>
  </defs>
  <g id="Group_173" data-name="Group 173" transform="translate(-3.777 -71.315)">
    <path id="Path_57" data-name="Path 57" class="cls-1" d="M141.805,147.375v-5.339a31.425,31.425,0,0,1-5.56-.633,28.96,28.96,0,0,0-.768,5.973Z" transform="translate(-123.189 -61.752)"/>
    <path id="Path_46" data-name="Path 46" class="cls-1" d="M276.53,141.4a31.424,31.424,0,0,1-5.56.633v5.339H277.3A28.958,28.958,0,0,0,276.53,141.4Z" transform="translate(-250.172 -61.752)"/>
    <path id="Path_47" data-name="Path 47" class="cls-1" d="M6.326,114.024a30.816,30.816,0,0,1,.821-6.4,20.263,20.263,0,0,1-4.269-1.7A15.238,15.238,0,0,0,0,114.024Z" transform="translate(3.777 -28.393)"/>
    <path id="Path_48" data-name="Path 48" class="cls-1" d="M6.326,270.97H0a15.239,15.239,0,0,0,2.879,8.1,20.262,20.262,0,0,1,4.269-1.7A30.811,30.811,0,0,1,6.326,270.97Z" transform="translate(3.777 -183.601)"/>
    <path id="Path_49" data-name="Path 49" class="cls-1" d="M272.659,2.608a4.531,4.531,0,0,0-1.688-.94V8.884a29.717,29.717,0,0,0,5.07-.567,18.4,18.4,0,0,0-1.018-2.5A10.015,10.015,0,0,0,272.659,2.608Z" transform="translate(-250.211 69.647)"/>
    <path id="Path_50" data-name="Path 50" class="cls-1" d="M70.947,406.48a18.8,18.8,0,0,0-3.591,1.39c.143.155.288.308.438.457a15.314,15.314,0,0,0,6.058,3.739,13.559,13.559,0,0,1-1.742-2.7A20.285,20.285,0,0,1,70.947,406.48Z" transform="translate(-59.538 -311.021)"/>
    <path id="Path_51" data-name="Path 51" class="cls-1" d="M157.474,5.812a18.411,18.411,0,0,0-1.018,2.5,29.717,29.717,0,0,0,5.07.567V1.668a4.531,4.531,0,0,0-1.688.94A10.015,10.015,0,0,0,157.474,5.812Z" transform="translate(-142.873 69.647)"/>
    <path id="Path_53" data-name="Path 53" class="cls-1" d="M339.2,17.915a18.793,18.793,0,0,0,3.591-1.39c-.143-.155-.288-.308-.438-.457a15.315,15.315,0,0,0-6.058-3.739,13.56,13.56,0,0,1,1.742,2.7A20.281,20.281,0,0,1,339.2,17.915Z" transform="translate(-311.2 59.626)"/>
    <path id="Path_54" data-name="Path 54" class="cls-1" d="M275.022,393.051a18.407,18.407,0,0,0,1.018-2.5,29.715,29.715,0,0,0-5.07-.567V397.2a4.529,4.529,0,0,0,1.688-.94A10.014,10.014,0,0,0,275.022,393.051Z" transform="translate(-250.21 -295.511)"/>
    <path id="Path_55" data-name="Path 55" class="cls-1" d="M392.781,107.627a30.816,30.816,0,0,1,.822,6.4h6.326a15.238,15.238,0,0,0-2.879-8.1A20.267,20.267,0,0,1,392.781,107.627Z" transform="translate(-364.293 -28.395)"/>
    <path id="Path_56" data-name="Path 56" class="cls-1" d="M270.97,270.97v5.339a31.423,31.423,0,0,1,5.56.633,28.962,28.962,0,0,0,.768-5.973Z" transform="translate(-250.172 -183.592)"/>
    <path id="Path_58" data-name="Path 58" class="cls-1" d="M70.947,17.915a20.277,20.277,0,0,1,1.162-2.886,13.558,13.558,0,0,1,1.742-2.7,15.315,15.315,0,0,0-6.058,3.739c-.15.15-.3.3-.438.457A18.8,18.8,0,0,0,70.947,17.915Z" transform="translate(-59.538 59.626)"/>
    <path id="Path_59" data-name="Path 59" class="cls-1" d="M339.205,406.48a20.278,20.278,0,0,1-1.162,2.886,13.562,13.562,0,0,1-1.742,2.7,15.315,15.315,0,0,0,6.058-3.739c.15-.15.3-.3.438-.457A18.8,18.8,0,0,0,339.205,406.48Z" transform="translate(-311.201 -311.021)"/>
    <path id="Path_60" data-name="Path 60" class="cls-1" d="M141.805,270.97h-6.328a28.959,28.959,0,0,0,.768,5.973,31.422,31.422,0,0,1,5.56-.633Z" transform="translate(-123.189 -183.592)"/>
    <path id="Path_61" data-name="Path 61" class="cls-1" d="M159.838,396.257a4.531,4.531,0,0,0,1.688.94v-7.216a29.715,29.715,0,0,0-5.07.567,18.4,18.4,0,0,0,1.018,2.5A10.016,10.016,0,0,0,159.838,396.257Z" transform="translate(-142.873 -295.512)"/>
    <path id="Path_52" data-name="Path 52" class="cls-1" d="M393.6,270.97a30.815,30.815,0,0,1-.822,6.4,20.263,20.263,0,0,1,4.269,1.7,15.239,15.239,0,0,0,2.879-8.1Z" transform="translate(-364.293 -183.601)"/>
  </g>
</svg>
