<svg xmlns="http://www.w3.org/2000/svg" width="17.958" height="15.958" viewBox="0 0 33.958 27.958">
  <defs>
    <style>
      .cls-1 {
        fill: #fff;
      }
    </style>
  </defs>
  <g id="old-typical-phone" transform="translate(0 -4.542)">
    <g id="Group_135" data-name="Group 135" transform="translate(0 4.542)">
      <path id="Path_149" data-name="Path 149" class="cls-1" d="M17.183,9.649c5.722.056,9.306-.3,9.791,6.042h6.977c0-9.825-8.569-11.149-16.95-11.149S.052,5.866.052,15.691H6.975C7.511,9.228,11.509,9.593,17.183,9.649Z" transform="translate(-0.018 -4.542)"/>
      <path id="Path_150" data-name="Path 150" class="cls-1" d="M3.495,24.995c1.7,0,3.114.1,3.428-1.57a4.266,4.266,0,0,0,.067-.783H0C0,25.129,1.565,24.995,3.495,24.995Z" transform="translate(0 -10.687)"/>
      <path id="Path_151" data-name="Path 151" class="cls-1" d="M40.846,22.642h-.065a3.734,3.734,0,0,0,.074.783c.332,1.542,1.744,1.446,3.437,1.446,1.939,0,3.511.127,3.511-2.229H40.846Z" transform="translate(-13.845 -10.687)"/>
      <path id="Path_152" data-name="Path 152" class="cls-1" d="M24.854,19.329v-.988c0-.442-.509-.47-1.138-.47H22.688c-.628,0-1.137.028-1.137.47v1.512H14.286V18.341c0-.442-.509-.47-1.137-.47H12.12c-.628,0-1.137.028-1.137.47v1.851c-1.655,1.72-7.071,9.042-7.268,9.928l0,5.915a.992.992,0,0,0,.991.991h26.42a.992.992,0,0,0,.991-.991V30.09c-.195-.861-5.61-8.179-7.265-9.9ZM13.928,30.915a.963.963,0,1,1,.963-.963A.963.963,0,0,1,13.928,30.915Zm0-3.3a.963.963,0,1,1,.963-.963A.963.963,0,0,1,13.928,27.613Zm0-3.3a.963.963,0,1,1,.963-.963A.963.963,0,0,1,13.928,24.311Zm3.963,6.6a.963.963,0,1,1,.963-.963A.963.963,0,0,1,17.891,30.915Zm0-3.3a.963.963,0,1,1,.963-.963A.963.963,0,0,1,17.891,27.613Zm0-3.3a.963.963,0,1,1,.963-.963A.963.963,0,0,1,17.891,24.311Zm3.963,6.6a.963.963,0,1,1,.963-.963A.962.962,0,0,1,21.854,30.915Zm0-3.3a.963.963,0,1,1,.963-.963A.962.962,0,0,1,21.854,27.613Zm0-3.3a.963.963,0,1,1,.963-.963A.962.962,0,0,1,21.854,24.311Z" transform="translate(-1.261 -9.067)"/>
    </g>
  </g>
</svg>
