<svg xmlns="http://www.w3.org/2000/svg" width="70" height="90" viewBox="0 0 113.18 113.171">
  <defs>
    <style>
      .cls-1 {
        fill: #ff7258;
      }

      .cls-2 {
        fill: #f95d48;
      }

      .cls-3 {
        fill: #ffdc65;
      }

      .cls-4 {
        fill: #ffc846;
      }

      .cls-5 {
        fill: #00abe0;
      }

      .cls-6 {
        fill: #099dd1;
      }
    </style>
  </defs>
  <g id="pie-chart_1_" data-name="pie-chart (1)" transform="translate(0 -0.019)">
    <path id="Path_133" data-name="Path 133" class="cls-1" d="M324.535,52.536H295.1a2.038,2.038,0,0,1-1.981-1.569A23.689,23.689,0,0,0,275.553,33.46a2.038,2.038,0,0,1-1.577-1.983V2.058A2.043,2.043,0,0,1,276.24.031a56.752,56.752,0,0,1,50.322,50.238A2.043,2.043,0,0,1,324.535,52.536Z" transform="translate(-213.413 0)"/>
    <path id="Path_134" data-name="Path 134" class="cls-2" d="M273.976,120.985v-6.056a31.348,31.348,0,0,1,27.2,27.116H295.1a2.038,2.038,0,0,1-1.981-1.569,23.689,23.689,0,0,0-17.571-17.507A2.038,2.038,0,0,1,273.976,120.985Z" transform="translate(-213.413 -89.508)"/>
    <path id="Path_135" data-name="Path 135" class="cls-3" d="M382.875,274.437a56.185,56.185,0,0,1-12.188,29.543,2.043,2.043,0,0,1-3.036.17l-16.476-16.476-4.335-4.335a2.042,2.042,0,0,1-.286-2.52,23.461,23.461,0,0,0,2.9-7.056,2.04,2.04,0,0,1,1.986-1.587h29.406A2.042,2.042,0,0,1,382.875,274.437Z" transform="translate(-269.707 -211.995)"/>
    <path id="Path_136" data-name="Path 136" class="cls-4" d="M357.507,272.175a31.156,31.156,0,0,1-6.332,15.5l-4.335-4.335a2.042,2.042,0,0,1-.286-2.52,23.461,23.461,0,0,0,2.9-7.056,2.04,2.04,0,0,1,1.986-1.586h6.065Z" transform="translate(-269.707 -211.994)"/>
    <path id="Path_137" data-name="Path 137" class="cls-5" d="M92.549,97.571a2.042,2.042,0,0,1-.166,3.032A56.743,56.743,0,0,1,16.619,16.326,56.31,56.31,0,0,1,50.659.031a2.041,2.041,0,0,1,2.259,2.028V31.477a2.041,2.041,0,0,1-1.581,1.984A23.613,23.613,0,1,0,69.218,76.489a2.041,2.041,0,0,1,2.529.281Z" transform="translate(0 0)"/>
    <path id="Path_138" data-name="Path 138" class="cls-6" d="M161.067,166.223l4.344,4.344a31.335,31.335,0,1,1-23.173-55.709v6.072a2.041,2.041,0,0,1-1.581,1.984,23.613,23.613,0,1,0,17.881,43.028A2.042,2.042,0,0,1,161.067,166.223Z" transform="translate(-89.319 -89.454)"/>
  </g>
</svg>
